<svg width="172" height="168" viewBox="0 0 172 168" fill="none" xmlns="http://www.w3.org/2000/svg">
<g filter="url(#filter0_d_2434_4622)">
<path d="M36 0H136V75.5814C136 103.196 113.614 125.581 86 125.581C58.3858 125.581 36 103.196 36 75.5814V0Z" fill="#303030"/>
</g>
<path d="M80.54 52.3726L83.4194 49.8916H70.5156L73.395 52.3726V78.5621L70.5156 81.0431H83.4194L80.54 78.5621V52.3726Z" fill="#CABAAE"/>
<path d="M88.1719 49.8916L91.0512 52.3726V57.9534L98.1963 60.1464V52.3727L101.076 49.8918L88.1719 49.8916Z" fill="#CABAAE"/>
<path d="M101.649 69.8829V63.1776L82.7344 57.375V64.0427L91.0572 66.6128V78.5622L88.1779 81.0432H101.082L98.2023 78.5622V68.8186L101.649 69.8829Z" fill="#CABAAE"/>
<path d="M48.6412 51.7822C48.6275 52.3632 48.7131 52.4714 49.3713 52.5167L53.8608 52.8276C54.519 52.8737 54.6185 52.77 54.6848 52.2019L54.8662 52.2116C54.828 52.5063 54.7833 53.027 54.7443 53.5841C54.7081 54.11 54.6776 54.6723 54.6724 55.0103L54.491 54.9974C54.5047 54.4169 54.4191 54.3088 53.761 54.2629L51.5871 54.1133L51.4207 56.511L53.5946 56.6612C54.2527 56.7079 54.353 56.6075 54.4191 56.0355L54.6005 56.0465C54.5597 56.3723 54.5138 56.9111 54.4787 57.4144C54.4386 57.9938 54.4101 58.5382 54.4062 58.8446L54.2258 58.8325C54.2388 58.256 54.1533 58.1491 53.4952 58.1024L49.0059 57.7916C48.3472 57.7456 48.2475 57.846 48.1814 58.4141L48 58.4012C48.0389 58.0968 48.0856 57.5544 48.1257 56.975C48.1606 56.4699 48.1891 55.9309 48.1937 55.6044L48.3751 55.616C48.3615 56.197 48.4476 56.3051 49.1058 56.3505L51.2395 56.4981L51.4059 54.0996L49.2722 53.9519C48.6134 53.9066 48.5137 54.0057 48.4476 54.5783L48.2662 54.5634C48.3071 54.2292 48.3554 53.6683 48.3912 53.1423C48.4301 52.5852 48.4573 52.0639 48.4598 51.7686L48.6412 51.7822Z" fill="#CABAAE"/>
<path d="M56.766 43.9755C57.2318 43.9717 57.4416 43.8051 57.5115 43.6465L57.6812 43.7059C57.5374 44.0356 57.3437 44.5214 57.1676 44.9858C56.9681 45.5124 56.7926 46.0001 56.7018 46.2909L56.5317 46.2264C56.669 45.8144 56.6794 45.6001 56.4475 45.5133C56.3054 45.4696 56.1567 45.4517 56.0083 45.4603L54.4233 45.4415L53.7238 47.2834L54.2258 47.7341C54.4727 47.9791 54.7611 48.1785 55.0776 48.3229C55.5252 48.4925 55.7506 48.2465 55.9393 47.7872L56.1097 47.8506C55.9471 48.2302 55.8176 48.5456 55.6842 48.8979C55.5895 49.1466 55.5099 49.3818 55.4613 49.5586L55.2916 49.4938C55.3402 49.2282 55.2153 48.896 54.6809 48.4187L50.4531 44.6044C50.4959 44.5163 50.5374 44.4186 50.5769 44.3149C50.6145 44.2158 50.6494 44.1109 50.676 44.0177L56.766 43.9755ZM51.629 45.4127L53.5785 47.1571L54.2307 45.4375L51.629 45.4127Z" fill="#CABAAE"/>
<path d="M55.4587 35.6086C55.1581 36.1048 55.1789 36.2407 55.7261 36.6074L59.4624 39.1075C60.0103 39.4741 60.1458 39.4379 60.4884 38.9747L60.6386 39.0776C60.4423 39.3392 60.1347 39.783 59.8536 40.2013C59.5316 40.6825 59.2363 41.1398 59.081 41.4029L58.9307 41.3019C59.2278 40.809 59.2079 40.673 58.66 40.3056L54.9244 37.8055C54.3765 37.4396 54.241 37.4759 53.9003 37.9351L53.75 37.8346C53.9347 37.5911 54.2443 37.1441 54.5671 36.6623C54.8476 36.244 55.1404 35.7912 55.3082 35.5068L55.4587 35.6086Z" fill="#CABAAE"/>
<path d="M66.8577 32.0542C66.872 32.2823 66.8316 32.5106 66.7399 32.72C66.6482 32.9294 66.5078 33.114 66.3305 33.2582C65.8524 33.6999 65.3777 33.8315 64.763 33.3691L64.0325 32.8131C63.421 32.3474 62.9533 32.0555 62.5374 32.4407L62.1048 32.8403L63.52 34.3715C63.9677 34.856 64.1082 34.8527 64.5493 34.4816L64.6723 34.6153C64.4198 34.8245 64.0169 35.1846 63.6463 35.5273C63.2201 35.9204 62.8262 36.2969 62.6138 36.5171L62.4908 36.3834C62.8956 35.9733 62.9068 35.8361 62.4597 35.3516L59.4076 32.0476C58.9599 31.5632 58.8188 31.567 58.3816 31.9356L58.2578 31.8019C58.4942 31.6076 58.9133 31.2326 59.2871 30.8866C59.723 30.4837 60.1531 30.0627 60.3221 29.9061C61.5612 28.761 62.5594 28.6285 63.2357 29.3602C63.7344 29.8997 63.9741 30.8175 62.9299 32.0293L62.9332 32.0268C63.8025 31.35 64.3945 31.2794 65.0222 31.7238L65.8059 32.2716C66.2082 32.5573 66.3973 32.6117 66.5636 32.4582C66.616 32.4068 66.655 32.3433 66.6774 32.2733C66.6997 32.2034 66.7047 32.129 66.6918 32.0567L66.8577 32.0542ZM60.4679 31.0689L61.9822 32.7069L62.2679 32.4426C63.0553 31.7159 62.7641 31.0682 62.1993 30.4568C61.5529 29.7586 60.957 29.5558 60.352 30.1151C60.0106 30.4296 60.0436 30.6103 60.4679 31.0689Z" fill="#CABAAE"/>
<path d="M75.5034 22.8321C75.6 23.0847 75.699 23.316 75.7762 23.4669L75.5818 23.5421C74.7481 22.2258 74.1236 21.9351 73.3343 22.2389L73.1485 22.3102L75.0085 27.1401C75.2741 27.8306 75.4652 27.8701 76.2204 27.5896L76.2857 27.7581C75.9218 27.8851 75.2883 28.1137 74.6652 28.3539C74.0421 28.5942 73.4591 28.8332 73.1294 28.9737L73.0641 28.8047C73.8128 28.5076 73.9275 28.3487 73.6619 27.6588L71.8015 22.8296L71.6157 22.9009C70.8183 23.2086 70.5573 23.8355 70.8183 25.3765L70.624 25.4508C70.5794 25.2874 70.4977 25.0497 70.4012 24.7971C70.293 24.516 70.052 23.9402 69.7891 23.3819C70.5631 23.1118 71.6577 22.6902 72.4136 22.3987C73.1696 22.1073 74.2559 21.6889 75.011 21.3701C75.1872 21.9623 75.3952 22.5509 75.5034 22.8321Z" fill="#CABAAE"/>
<path d="M82.3808 25.4628C82.4489 26.1681 82.6212 26.2491 83.4249 26.1811L83.4437 26.3793C83.0722 26.402 82.4404 26.4492 81.7965 26.5113C81.2765 26.5618 80.7576 26.6247 80.367 26.6758L80.3495 26.4951C80.9195 26.4136 81.0121 26.3112 80.9492 25.6544L80.5169 21.1756C80.4535 20.5194 80.3386 20.4373 79.7675 20.4658L79.75 20.2844C80.0558 20.2728 80.6167 20.2274 81.1238 20.1788C81.7145 20.1217 82.3123 20.0467 82.541 20.0246C84.2213 19.8627 85.1112 20.5148 85.2122 21.5641C85.2964 22.4372 84.8384 23.6374 82.7093 23.8427L82.2287 23.8894L82.3808 25.4628ZM81.9543 21.037L82.2115 23.7086L82.5995 23.6716C83.6664 23.5692 83.8121 22.7272 83.7233 21.8061C83.6139 20.6684 83.2588 20.1283 82.4388 20.2079C81.9763 20.2526 81.894 20.4159 81.9543 21.037Z" fill="#CABAAE"/>
<path d="M98.5207 22.3995C98.5547 22.4567 98.6066 22.5011 98.6684 22.5258C98.7914 22.562 98.9061 22.4201 99.0453 22.0737L99.2448 22.1319C99.0887 22.5711 98.9048 23.1676 98.5932 24.2299L98.3892 24.1705C98.5298 23.344 98.5427 22.8912 98.1968 22.4026C97.982 22.0347 97.6323 21.765 97.2219 21.6506C95.9725 21.284 95.0605 22.6002 94.6103 24.1391C94.153 25.6981 94.2612 27.2669 95.5062 27.6316C95.9069 27.7535 96.3392 27.7166 96.7136 27.5287C97.2661 27.3116 97.5142 26.859 97.8438 26.0318L98.0478 26.092C97.724 27.197 97.5497 27.8239 97.4387 28.2948L97.2392 28.2366C97.3098 27.8693 97.3007 27.6964 97.1769 27.6602C97.1088 27.6473 97.0384 27.6536 96.9735 27.6783C96.4599 27.8558 95.9495 27.9925 95.2013 27.7735C93.357 27.232 92.4689 25.7119 93.0532 23.7189C93.6232 21.7727 95.2775 20.8359 97.0879 21.3664C97.6745 21.5267 98.1834 21.8936 98.5207 22.3995Z" fill="#CABAAE"/>
<path d="M106.231 25.9209C105.695 25.6184 105.545 25.634 105.195 26.1929L102.759 30.0991C102.459 30.5797 102.496 30.6969 102.901 30.9497L103.277 31.1835C103.987 31.6265 104.958 31.2726 105.749 30.3414L105.925 30.4515C105.8 30.6179 105.644 30.8506 105.48 31.1135C105.331 31.3539 105.029 31.8545 104.775 32.3629C104.266 32.0151 103.545 31.565 103.027 31.2417C102.513 30.9211 101.36 30.2018 100.508 29.702L100.604 29.5478C101.106 29.8301 101.242 29.805 101.591 29.2454L103.97 25.4297C104.32 24.8695 104.279 24.7348 103.808 24.4103L103.904 24.2588C104.154 24.4363 104.611 24.7317 105.103 25.038C105.55 25.3171 106.032 25.6067 106.327 25.7673L106.231 25.9209Z" fill="#CABAAE"/>
<path d="M113.548 31.9524C113.118 31.5632 112.98 31.558 112.516 32.0267L109.353 35.2194C108.889 35.6877 108.899 35.8285 109.289 36.2519L109.161 36.3809C108.941 36.138 108.564 35.752 108.206 35.397C107.794 34.9889 107.401 34.612 107.172 34.4105L107.299 34.2816C107.726 34.6669 107.864 34.6727 108.328 34.2045L111.491 31.0113C111.955 30.543 111.945 30.4022 111.558 29.9821L111.686 29.8525C111.89 30.0798 112.271 30.4692 112.682 30.8776C113.041 31.2325 113.43 31.6056 113.676 31.8239L113.548 31.9524Z" fill="#CABAAE"/>
<path d="M119.741 40.6261C119.371 40.1727 119.113 40.2109 118.366 40.6689L114.051 43.3167C114.02 43.2573 113.98 43.1929 113.941 43.1289C113.899 43.0609 113.858 42.9928 113.808 42.9159L116.005 36.9586L113.038 38.777C112.188 39.2977 112.034 39.4856 112.384 40.2103L112.23 40.3068C112.122 40.0977 111.91 39.7343 111.739 39.4544C111.591 39.2121 111.419 38.9486 111.305 38.7951L111.46 38.7005C111.831 39.1533 112.088 39.1157 112.835 38.6577L116.316 36.5254C116.879 36.1801 116.903 36.0409 116.624 35.5363L116.78 35.4424C116.863 35.6134 117.021 35.8867 117.168 36.1283C117.319 36.3737 117.474 36.6108 117.601 36.782L115.743 42.0316L118.163 40.549C119.013 40.029 119.168 39.8411 118.817 39.1163L118.972 39.0243C119.079 39.2335 119.292 39.5976 119.462 39.8768C119.611 40.1191 119.782 40.3826 119.897 40.5304L119.741 40.6261Z" fill="#CABAAE"/>
<path d="M122.36 47.6322C122.159 47.0869 122.039 47.0182 121.41 47.2184L117.122 48.5851C116.493 48.7852 116.437 48.9142 116.587 49.4719L116.414 49.5289C116.331 49.2116 116.176 48.6934 116.022 48.2121C115.846 47.6582 115.672 47.1414 115.562 46.8551L115.735 46.8C115.936 47.3409 116.055 47.4091 116.684 47.2093L120.972 45.8425C121.601 45.6424 121.657 45.5129 121.509 44.9604L121.682 44.9053C121.758 45.2024 121.915 45.7246 122.091 46.2778C122.244 46.759 122.416 47.2714 122.533 47.5765L122.36 47.6322Z" fill="#CABAAE"/>
<path d="M123.471 57.116C123.429 57.1681 123.406 57.2322 123.404 57.2988C123.413 57.4264 123.586 57.4853 123.96 57.4944L123.975 57.7024C123.509 57.7095 122.885 57.7444 121.781 57.8235L121.766 57.6116C122.59 57.4549 123.019 57.3086 123.357 56.8143C123.626 56.4841 123.757 56.0624 123.721 55.638C123.628 54.3393 122.076 53.9435 120.477 54.0582C118.856 54.1748 117.424 54.8237 117.516 56.1179C117.542 56.5358 117.728 56.9277 118.035 57.2124C118.43 57.6554 118.942 57.7293 119.831 57.7501L119.846 57.9619C118.698 58.0442 118.049 58.0999 117.569 58.1607L117.555 57.9527C117.923 57.8905 118.082 57.8212 118.073 57.693C118.061 57.6245 118.03 57.5606 117.984 57.5084C117.639 57.0893 117.333 56.6586 117.277 55.8807C117.14 53.9636 118.255 52.6005 120.327 52.452C122.35 52.3076 123.806 53.5304 123.941 55.4134C123.995 56.019 123.828 56.6238 123.471 57.116Z" fill="#CABAAE"/>
<path d="M119.898 67.6861C119.597 67.6853 119.302 67.5951 119.051 67.4269C118.801 67.2587 118.606 67.02 118.49 66.741C118.375 66.462 118.345 66.1552 118.405 65.8593C118.464 65.5633 118.609 65.2915 118.823 65.0781C119.036 64.8648 119.308 64.7194 119.604 64.6604C119.9 64.6013 120.207 64.6313 120.486 64.7464C120.765 64.8616 121.003 65.0568 121.171 65.3074C121.34 65.558 121.43 65.8528 121.43 66.1546C121.431 66.356 121.392 66.5556 121.316 66.7418C121.239 66.928 121.126 67.0972 120.984 67.2396C120.841 67.382 120.672 67.4948 120.486 67.5714C120.299 67.6481 120.1 67.687 119.898 67.6861Z" fill="#CABAAE"/>
<path d="M123.002 81.2336C123.046 80.6542 122.967 80.5419 122.311 80.461L117.842 79.9085C117.188 79.8276 117.081 79.9261 116.985 80.4902L116.805 80.4643C116.858 80.1722 116.931 79.6547 117 79.1008C117.064 78.5774 117.125 78.0186 117.148 77.6837L117.328 77.7064C117.284 78.2858 117.363 78.3981 118.019 78.4789L120.183 78.7464L120.478 76.3588L118.314 76.0914C117.659 76.0105 117.553 76.1051 117.456 76.673L117.276 76.6497C117.333 76.3265 117.409 75.7915 117.471 75.2902C117.542 74.7144 117.6 74.1729 117.619 73.8672L117.8 73.8892C117.755 74.4644 117.835 74.577 118.49 74.658L122.959 75.2099C123.615 75.2908 123.72 75.197 123.816 74.6335L123.997 74.6554C123.942 74.9566 123.866 75.4962 123.795 76.0714C123.733 76.5734 123.676 77.1103 123.652 77.4393L123.472 77.4166C123.517 76.8372 123.437 76.7249 122.782 76.6441L120.658 76.3817L120.363 78.7686L122.488 79.0316C123.143 79.1131 123.248 79.0187 123.345 78.45L123.526 78.47C123.466 78.8024 123.389 79.3593 123.325 79.8827C123.256 80.4365 123.2 80.9559 123.181 81.2564L123.002 81.2336Z" fill="#CABAAE"/>
<path d="M114.443 88.5804C113.979 88.5577 113.76 88.7119 113.681 88.8661L113.516 88.7918C113.678 88.4718 113.898 87.9978 114.099 87.545C114.328 87.032 114.53 86.5552 114.636 86.2736L114.802 86.3468C114.642 86.751 114.619 86.9641 114.846 87.0645C114.986 87.1153 115.133 87.1414 115.282 87.1416L116.862 87.2492L117.662 85.4506L117.186 84.9725C116.953 84.7143 116.677 84.4993 116.369 84.3377C115.932 84.1434 115.693 84.3759 115.48 84.8235L115.314 84.7492C115.497 84.38 115.644 84.0729 115.797 83.729C115.905 83.4861 115.997 83.2569 116.055 83.084L116.221 83.1583C116.157 83.4206 116.264 83.758 116.77 84.2646L120.775 88.3031C120.727 88.3886 120.679 88.4831 120.635 88.5853C120.591 88.6819 120.55 88.7848 120.519 88.8774L114.443 88.5804ZM119.647 87.4325L117.801 85.5846L117.054 87.2621L119.647 87.4325Z" fill="#CABAAE"/>
<path d="M115.281 97.024C115.609 96.5448 115.597 96.4073 115.069 96.0091L111.476 93.2984C110.948 92.9007 110.81 92.9298 110.442 93.3736L110.297 93.2616C110.508 93.011 110.841 92.5847 111.145 92.1818C111.494 91.7188 111.816 91.2789 111.986 91.0244L112.131 91.1339C111.805 91.6093 111.818 91.7473 112.346 92.145L115.941 94.8564C116.468 95.2535 116.606 95.225 116.972 94.7845L117.117 94.894C116.918 95.1265 116.583 95.556 116.234 96.019C115.929 96.4219 115.611 96.8591 115.428 97.1332L115.281 97.024Z" fill="#CABAAE"/>
<path d="M103.68 99.9304C103.678 99.7015 103.732 99.4756 103.835 99.2715C103.939 99.0673 104.089 98.8909 104.275 98.7568C104.778 98.3429 105.26 98.238 105.848 98.7354L106.546 99.3313C107.13 99.8319 107.581 100.149 108.019 99.7886L108.474 99.4142L107.147 97.8033C106.727 97.2942 106.586 97.2898 106.124 97.6356L106.009 97.4951C106.273 97.3008 106.696 96.964 107.086 96.6426C107.534 96.2741 107.949 95.9205 108.174 95.7119L108.289 95.8525C107.862 96.2387 107.842 96.3758 108.262 96.8855L111.124 100.36C111.543 100.869 111.685 100.873 112.143 100.531L112.258 100.671C112.011 100.852 111.571 101.203 111.178 101.526C110.719 101.904 110.265 102.3 110.088 102.447C108.785 103.521 107.78 103.597 107.146 102.828C106.678 102.26 106.491 101.329 107.604 100.177L107.6 100.18C106.693 100.807 106.097 100.844 105.496 100.364L104.744 99.7718C104.358 99.4635 104.173 99.3987 103.998 99.5431C103.943 99.5914 103.9 99.6525 103.873 99.7212C103.847 99.7898 103.838 99.8639 103.847 99.937L103.68 99.9304ZM110.009 101.278L108.589 99.555L108.288 99.8031C107.46 100.485 107.714 101.148 108.244 101.791C108.849 102.527 109.434 102.763 110.07 102.239C110.429 101.943 110.405 101.761 110.008 101.278H110.009Z" fill="#CABAAE"/>
<path d="M96.2859 108.182C96.1907 107.929 96.0935 107.696 96.0185 107.546L96.2134 107.472C97.038 108.793 97.6599 109.088 98.4507 108.79L98.6373 108.719L96.8112 103.879C96.5508 103.187 96.3597 103.146 95.6032 103.422L95.5391 103.252C95.9044 103.129 96.5385 102.903 97.1636 102.668C97.7888 102.432 98.3724 102.197 98.7034 102.059L98.7668 102.228C98.0167 102.52 97.9008 102.678 98.1619 103.369L99.9872 108.21L100.174 108.14C100.973 107.839 101.239 107.214 100.988 105.671L101.182 105.597C101.225 105.761 101.306 106 101.401 106.253C101.507 106.534 101.745 107.112 102.003 107.666C101.227 107.93 100.13 108.344 99.3724 108.63C98.6151 108.916 97.5251 109.326 96.7685 109.646C96.5963 109.054 96.3921 108.464 96.2859 108.182Z" fill="#CABAAE"/>
<path d="M89.4422 105.518C89.3768 104.812 89.2045 104.73 88.4022 104.796L88.3841 104.597C88.7555 104.576 89.3868 104.532 90.0306 104.473C90.5506 104.425 91.0696 104.364 91.4609 104.314L91.4777 104.495C90.907 104.574 90.8137 104.676 90.8741 105.333L91.286 109.811C91.3462 110.468 91.4609 110.551 92.0323 110.525L92.0485 110.705C91.7427 110.716 91.1825 110.758 90.6753 110.804C90.0846 110.859 89.4867 110.931 89.2574 110.953C87.5778 111.108 86.6904 110.451 86.5944 109.402C86.5141 108.53 86.9773 107.331 89.1064 107.135L89.587 107.091L89.4422 105.518ZM89.8484 109.944L89.6035 107.272L89.2149 107.308C88.148 107.406 87.999 108.246 88.0832 109.167C88.1881 110.305 88.5399 110.846 89.3599 110.77C89.8226 110.728 89.9055 110.565 89.8479 109.943L89.8484 109.944Z" fill="#CABAAE"/>
<path d="M75.2576 109.139C75.2206 109.083 75.1664 109.042 75.1034 109.02C74.9785 108.99 74.8702 109.138 74.7497 109.492L74.5469 109.443C74.6806 108.997 74.8345 108.392 75.0917 107.314L75.2983 107.363C75.1998 108.196 75.2102 108.649 75.5806 109.12C75.8143 109.477 76.1774 109.728 76.5931 109.822C77.8601 110.124 78.7027 108.763 79.0759 107.203C79.4528 105.621 79.2651 104.06 78.0027 103.759C77.5961 103.658 77.1661 103.717 76.8018 103.924C76.2609 104.168 76.0363 104.633 75.7486 105.476L75.542 105.427C75.8094 104.306 75.9513 103.671 76.0374 103.194L76.2402 103.243C76.1884 103.613 76.2065 103.786 76.3316 103.815C76.4007 103.825 76.471 103.815 76.5344 103.786C77.0383 103.583 77.5417 103.421 78.2995 103.602C80.1701 104.048 81.1346 105.521 80.6528 107.542C80.1819 109.515 78.5769 110.535 76.7412 110.097C76.1472 109.967 75.6203 109.627 75.2576 109.139Z" fill="#CABAAE"/>
<path d="M67.3701 106.001C67.9213 106.277 68.0716 106.253 68.3922 105.677L70.6335 101.648C70.9094 101.152 70.8668 101.037 70.4482 100.804L70.0609 100.589C69.3284 100.181 68.3743 100.584 67.6307 101.556L67.4487 101.455C67.5653 101.28 67.7091 101.041 67.8601 100.77C67.9981 100.522 68.2746 100.006 68.504 99.4844C69.0299 99.8076 69.7735 100.221 70.3079 100.518C70.839 100.813 72.0283 101.475 72.9052 101.932L72.8161 102.091C72.2998 101.834 72.1651 101.865 71.8445 102.443L69.6552 106.38C69.3346 106.958 69.3824 107.091 69.869 107.392L69.7809 107.554C69.5218 107.39 69.0496 107.117 68.5424 106.835C68.0819 106.578 67.5851 106.313 67.2812 106.16L67.3701 106.001Z" fill="#CABAAE"/>
<path d="M59.7697 100.317C60.2192 100.685 60.3571 100.684 60.7989 100.194L63.8116 96.85C64.2533 96.3598 64.2365 96.2199 63.8264 95.815L63.9483 95.6797C64.1802 95.9122 64.576 96.2802 64.9509 96.6189C65.3818 97.0069 65.793 97.3651 66.0321 97.5567L65.9102 97.6915C65.4645 97.3262 65.3267 97.3268 64.8851 97.8164L61.8716 101.161C61.4299 101.651 61.4467 101.791 61.8535 102.194L61.7316 102.332C61.5167 102.115 61.1176 101.743 60.6862 101.355C60.3112 101.017 59.9037 100.662 59.6484 100.452L59.7697 100.317Z" fill="#CABAAE"/>
<path d="M53.1651 91.9457C53.557 92.3803 53.8122 92.3298 54.5358 91.8368L58.7161 88.9941C58.7505 89.0518 58.7925 89.114 58.835 89.1761C58.8796 89.2415 58.925 89.3076 58.9782 89.3737L57.0716 95.4252L59.9457 93.4685C60.7689 92.9075 60.914 92.7126 60.5292 92.0053L60.6788 91.9056C60.7961 92.109 61.0255 92.4606 61.21 92.7315C61.3694 92.9647 61.5533 93.2192 61.675 93.3663L61.5254 93.4686C61.1329 93.0347 60.8782 93.0846 60.1541 93.5781L56.7827 95.8735C56.2379 96.2449 56.2205 96.3852 56.5222 96.8748L56.3726 96.9778C56.2801 96.8106 56.1103 96.5469 55.951 96.3125C55.7891 96.0748 55.6227 95.8462 55.4885 95.6797L57.0884 90.3496L54.7443 91.9463C53.9217 92.5066 53.7766 92.7022 54.1614 93.4089L54.0118 93.5145C53.894 93.3106 53.6646 92.9588 53.4806 92.6887C53.3212 92.4549 53.1373 92.201 53.0156 92.0481L53.1651 91.9457Z" fill="#CABAAE"/>
<path d="M50.2015 85.0585C50.4282 85.5933 50.5512 85.6557 51.1693 85.4264L55.3866 83.8602C56.0053 83.6297 56.0552 83.4982 55.8802 82.949L56.0506 82.8867C56.1477 83.1996 56.3278 83.7087 56.5034 84.1822C56.7055 84.7262 56.9037 85.2334 57.0268 85.5133L56.8564 85.5767C56.631 85.0469 56.5079 84.9834 55.8907 85.2127L51.6725 86.7794C51.0532 87.0094 51.0039 87.1409 51.177 87.6857L51.0073 87.7491C50.9173 87.4557 50.7359 86.9421 50.5339 86.3993C50.3582 85.9258 50.1624 85.4225 50.0312 85.1208L50.2015 85.0585Z" fill="#CABAAE"/>
<path d="M48.6253 75.6442C48.6639 75.5903 48.6844 75.5254 48.6836 75.459C48.6687 75.332 48.4925 75.2815 48.119 75.2899L48.0938 75.0833C48.5588 75.0548 49.1801 74.9894 50.2799 74.8585L50.3052 75.0696C49.4897 75.2645 49.0673 75.4311 48.7538 75.9414C48.5005 76.2837 48.3897 76.7108 48.4448 77.1331C48.599 78.4256 50.1682 78.7478 51.7599 78.5581C53.3741 78.3657 54.7739 77.6507 54.6203 76.3618C54.5748 75.9455 54.3713 75.5626 54.0516 75.2922C53.6356 74.8692 53.1208 74.8187 52.2315 74.8401L52.2062 74.629C53.3502 74.4929 53.9953 74.4061 54.4714 74.3232L54.4961 74.5299C54.1308 74.6089 53.9754 74.686 53.9902 74.8136C54.0055 74.8814 54.0391 74.9437 54.0874 74.9937C54.4521 75.396 54.7785 75.8124 54.8705 76.5864C55.0978 78.4953 54.0485 79.9091 51.9855 80.1553C49.971 80.3949 48.4598 79.2413 48.237 77.3675C48.1539 76.7651 48.2919 76.1529 48.6253 75.6442Z" fill="#CABAAE"/>
<path d="M52.1256 64.6992C52.4274 64.7001 52.722 64.7903 52.9725 64.9585C53.223 65.1267 53.4181 65.3652 53.5332 65.6441C53.6482 65.9231 53.6781 66.2298 53.619 66.5256C53.5599 66.8215 53.4146 67.0932 53.2012 67.3066C52.9879 67.5199 52.7161 67.6653 52.4203 67.7244C52.1244 67.7834 51.8176 67.7536 51.5387 67.6385C51.2598 67.5235 51.0212 67.3284 50.853 67.0779C50.6849 66.8274 50.5946 66.5327 50.5938 66.231C50.5928 66.0296 50.6318 65.83 50.7085 65.6438C50.7851 65.4575 50.8979 65.2883 51.0404 65.1458C51.1828 65.0034 51.3521 64.8906 51.5383 64.814C51.7246 64.7373 51.9242 64.6983 52.1256 64.6992Z" fill="#CABAAE"/>
<defs>
<filter id="filter0_d_2434_4622" x="0" y="-30" width="172" height="197.581" filterUnits="userSpaceOnUse" color-interpolation-filters="sRGB">
<feFlood flood-opacity="0" result="BackgroundImageFix"/>
<feColorMatrix in="SourceAlpha" type="matrix" values="0 0 0 0 0 0 0 0 0 0 0 0 0 0 0 0 0 0 127 0" result="hardAlpha"/>
<feMorphology radius="10" operator="dilate" in="SourceAlpha" result="effect1_dropShadow_2434_4622"/>
<feOffset dy="6"/>
<feGaussianBlur stdDeviation="13"/>
<feComposite in2="hardAlpha" operator="out"/>
<feColorMatrix type="matrix" values="0 0 0 0 0.120343 0 0 0 0 0.120343 0 0 0 0 0.120343 0 0 0 1 0"/>
<feBlend mode="normal" in2="BackgroundImageFix" result="effect1_dropShadow_2434_4622"/>
<feBlend mode="normal" in="SourceGraphic" in2="effect1_dropShadow_2434_4622" result="shape"/>
</filter>
</defs>
</svg>
