<svg width="196" height="214" viewBox="0 0 196 214" fill="none" xmlns="http://www.w3.org/2000/svg">
  <defs>
    <linearGradient id="shieldBg" x1="32" y1="6" x2="168" y2="164" gradientUnits="userSpaceOnUse">
      <stop stop-color="#1F303D"/>
      <stop offset="1" stop-color="#101923"/>
    </linearGradient>
    <radialGradient id="shieldDepth" cx="0" cy="0" r="1" gradientUnits="userSpaceOnUse" gradientTransform="translate(84 46) rotate(58) scale(146 114)">
      <stop stop-color="#2D4152" stop-opacity="0.28"/>
      <stop offset="1" stop-color="#0E151D" stop-opacity="0"/>
    </radialGradient>
    <linearGradient id="markStroke" x1="36" y1="16" x2="160" y2="136" gradientUnits="userSpaceOnUse">
      <stop stop-color="#EBCDAF"/>
      <stop offset="1" stop-color="#C89C72"/>
    </linearGradient>
    <linearGradient id="maText" x1="76" y1="136" x2="120" y2="153" gradientUnits="userSpaceOnUse">
      <stop stop-color="#F2D7BD"/>
      <stop offset="1" stop-color="#D0A57D"/>
    </linearGradient>
    <filter id="markShadow" x="4" y="-18" width="188" height="244" filterUnits="userSpaceOnUse" color-interpolation-filters="sRGB">
      <feDropShadow dx="0" dy="9" stdDeviation="14" flood-color="#000000" flood-opacity="0.38"/>
    </filter>
  </defs>

  <g filter="url(#markShadow)">
    <path d="M38 0H158V86.4C158 118 130.9 143.6 98 143.6C65.1 143.6 38 118 38 86.4V0Z" fill="url(#shieldBg)"/>
    <path d="M38 0H158V86.4C158 118 130.9 143.6 98 143.6C65.1 143.6 38 118 38 86.4V0Z" fill="url(#shieldDepth)"/>
    <g transform="translate(98 58) scale(0.58)" stroke="url(#markStroke)" stroke-width="2.3" stroke-linecap="round" stroke-linejoin="round" fill="none">
      <circle cx="0" cy="6" r="64"/>

      <line x1="0" y1="-84" x2="0" y2="96"/>
      <line x1="-82" y1="-28" x2="82" y2="-28"/>
      <line x1="-82" y1="60" x2="82" y2="60"/>

      <line x1="0" y1="-84" x2="-82" y2="60"/>
      <line x1="0" y1="-84" x2="82" y2="60"/>
      <line x1="0" y1="96" x2="-82" y2="-28"/>
      <line x1="0" y1="96" x2="82" y2="-28"/>

      <line x1="-82" y1="-28" x2="0" y2="6"/>
      <line x1="82" y1="-28" x2="0" y2="6"/>
      <line x1="-82" y1="60" x2="0" y2="6"/>
      <line x1="82" y1="60" x2="0" y2="6"/>

      <polygon points="0,-50 40,6 0,62 -40,6"/>
      <polygon points="-40,6 0,-18 40,6 0,32"/>
      <rect x="-28" y="6" width="56" height="56"/>

      <circle cx="0" cy="6" r="12"/>
      <circle cx="0" cy="-56" r="6.5"/>
      <circle cx="0" cy="60" r="8"/>
      <circle cx="-82" cy="-28" r="9"/>
      <circle cx="82" cy="-28" r="9"/>
      <circle cx="-82" cy="60" r="9"/>
      <circle cx="82" cy="60" r="9"/>
    </g>

    <text x="98" y="130" text-anchor="middle" fill="url(#maText)" font-family="'Cormorant Garamond', Georgia, serif" font-weight="600" letter-spacing="0.02em">
      <tspan font-size="48">M</tspan>
      <tspan font-size="30" dx="1.5">A</tspan>
    </text>
  </g>
</svg>
