<svg width="1600" height="1000" viewBox="0 0 1600 1000" fill="none" xmlns="http://www.w3.org/2000/svg">
  <defs>
    <linearGradient id="bg" x1="0" y1="0" x2="1600" y2="1000" gradientUnits="userSpaceOnUse">
      <stop stop-color="#EEE3D9"/>
      <stop offset="1" stop-color="#D9C8BA"/>
    </linearGradient>
    <radialGradient id="glowA" cx="0" cy="0" r="1" gradientUnits="userSpaceOnUse" gradientTransform="translate(220 180) rotate(90) scale(220 320)">
      <stop stop-color="#FFFFFF" stop-opacity="0.34"/>
      <stop offset="1" stop-color="#FFFFFF" stop-opacity="0"/>
    </radialGradient>
    <radialGradient id="glowB" cx="0" cy="0" r="1" gradientUnits="userSpaceOnUse" gradientTransform="translate(1280 230) rotate(90) scale(280 520)">
      <stop stop-color="#FFFFFF" stop-opacity="0.42"/>
      <stop offset="1" stop-color="#FFFFFF" stop-opacity="0"/>
    </radialGradient>
    <linearGradient id="glassPanel" x1="0" y1="0" x2="1" y2="1">
      <stop offset="0" stop-color="#FCF8F4" stop-opacity="0.92"/>
      <stop offset="1" stop-color="#F0E7DF" stop-opacity="0.72"/>
    </linearGradient>
    <linearGradient id="glassCard" x1="0" y1="0" x2="1" y2="1">
      <stop offset="0" stop-color="#FFFFFF" stop-opacity="0.76"/>
      <stop offset="1" stop-color="#F5EDE5" stop-opacity="0.54"/>
    </linearGradient>
    <linearGradient id="softGloss" x1="0" y1="0" x2="0" y2="1">
      <stop offset="0" stop-color="#8A7060" stop-opacity="0.94"/>
      <stop offset="1" stop-color="#5E4B41" stop-opacity="0.98"/>
    </linearGradient>
    <linearGradient id="highlight" x1="0" y1="0" x2="0" y2="1">
      <stop stop-color="#FFFFFF" stop-opacity="0.56"/>
      <stop offset="1" stop-color="#FFFFFF" stop-opacity="0"/>
    </linearGradient>
    <linearGradient id="alertRed" x1="0" y1="0" x2="0" y2="1">
      <stop stop-color="#E46A59"/>
      <stop offset="1" stop-color="#C84434"/>
    </linearGradient>
    <linearGradient id="warnAmber" x1="0" y1="0" x2="0" y2="1">
      <stop stop-color="#E9C94E"/>
      <stop offset="1" stop-color="#D5A81E"/>
    </linearGradient>
    <linearGradient id="safeGreen" x1="0" y1="0" x2="0" y2="1">
      <stop stop-color="#5DCE63"/>
      <stop offset="1" stop-color="#2DA13A"/>
    </linearGradient>
    <filter id="outer" x="-20%" y="-20%" width="140%" height="160%">
      <feDropShadow dx="0" dy="18" stdDeviation="24" flood-color="#6A4E38" flood-opacity="0.12"/>
      <feDropShadow dx="0" dy="4" stdDeviation="6" flood-color="#6A4E38" flood-opacity="0.08"/>
    </filter>
    <filter id="soft" x="-20%" y="-20%" width="140%" height="160%">
      <feDropShadow dx="0" dy="10" stdDeviation="12" flood-color="#6A4E38" flood-opacity="0.08"/>
      <feDropShadow dx="0" dy="2" stdDeviation="3" flood-color="#6A4E38" flood-opacity="0.06"/>
    </filter>
  </defs>

  <rect width="1600" height="1000" fill="url(#bg)"/>
  <rect width="1600" height="1000" fill="url(#glowA)"/>
  <rect width="1600" height="1000" fill="url(#glowB)"/>

  <g filter="url(#outer)">
    <rect x="28" y="18" width="1544" height="52" rx="24" fill="url(#glassCard)" stroke="#D6C7B8" stroke-opacity="0.9"/>
    <rect x="28" y="80" width="1544" height="44" rx="22" fill="url(#glassCard)" stroke="#D6C7B8" stroke-opacity="0.9"/>
  </g>

  <circle cx="58" cy="44" r="16" fill="#3B2E28" opacity="0.92"/>
  <text x="90" y="50" fill="#5E4B41" font-size="13" font-family="Inter, Arial, sans-serif" font-weight="700" letter-spacing="0.18em">CCO COMMUNICATION</text>

  <g font-family="Inter, Arial, sans-serif" font-size="15" font-weight="700">
    <rect x="48" y="88" width="86" height="28" rx="14" fill="url(#softGloss)"/>
    <rect x="142" y="88" width="96" height="28" rx="14" fill="url(#glassCard)" stroke="#D6C7B8"/>
    <rect x="246" y="88" width="110" height="28" rx="14" fill="url(#glassCard)" stroke="#D6C7B8"/>
    <rect x="364" y="88" width="96" height="28" rx="14" fill="url(#glassCard)" stroke="#D6C7B8"/>
    <text x="75" y="107" fill="#FBF7F3">Inbox</text>
    <text x="173" y="107" fill="#6D5A4E">Follow-up</text>
    <text x="280" y="107" fill="#6D5A4E">Shared threads</text>
    <text x="396" y="107" fill="#6D5A4E">Sent</text>
  </g>

  <rect x="1234" y="26" width="160" height="34" rx="17" fill="url(#glassCard)" stroke="#D6C7B8"/>
  <rect x="1408" y="26" width="126" height="34" rx="17" fill="url(#glassCard)" stroke="#D6C7B8"/>
  <text x="1270" y="48" fill="#6D5A4E" font-size="14" font-family="Inter, Arial, sans-serif" font-weight="700">Search mail</text>
  <text x="1450" y="48" fill="#6D5A4E" font-size="14" font-family="Inter, Arial, sans-serif" font-weight="700">Egzona</text>

  <g filter="url(#outer)">
    <rect x="38" y="154" width="1524" height="808" rx="32" fill="url(#glassPanel)" stroke="#D6C7B8"/>
  </g>

  <g filter="url(#soft)">
    <rect x="60" y="180" width="76" height="748" rx="28" fill="url(#glassCard)" stroke="#D6C7B8"/>
  </g>
  <g fill="#7C6A5E" opacity="0.88" stroke="#7C6A5E" stroke-width="3" stroke-linecap="round" stroke-linejoin="round">
    <rect x="76" y="204" width="44" height="44" rx="14" fill="url(#glassCard)" stroke="#D6C7B8"/>
    <circle cx="98" cy="226" r="12" fill="none"/>
    <path d="M98 214v12l8 6" fill="none"/>
    <path d="M82 330h32l-16 12-16-12z" fill="none" stroke-width="2.6"/>
    <rect x="84" y="436" width="28" height="28" rx="7" fill="none" stroke-width="2.6"/>
    <path d="M90 450l6 6 10-12" fill="none" stroke-width="2.6"/>
    <path d="M84 572c0-8 6-14 14-14s14 6 14 14" fill="none" stroke-width="2.6"/>
    <path d="M84 586c0-8 6-14 14-14s14 6 14 14" fill="none" stroke-width="2.6"/>
    <rect x="84" y="686" width="28" height="28" rx="6" fill="none" stroke-width="2.6"/>
    <path d="M98 694v12M92 700h12" fill="none" stroke-width="2.6"/>
    <circle cx="98" cy="812" r="12" fill="none" stroke-width="2.6"/>
    <path d="M98 804v16M90 812h16M92 806l12 12M104 806l-12 12" fill="none" stroke-width="2" opacity="0.0"/>
  </g>

  <g filter="url(#soft)">
    <rect x="156" y="180" width="628" height="186" rx="28" fill="url(#glassCard)" stroke="#D6C7B8"/>
    <rect x="156" y="382" width="628" height="546" rx="28" fill="url(#glassCard)" stroke="#D6C7B8"/>
    <rect x="804" y="180" width="720" height="748" rx="28" fill="url(#glassCard)" stroke="#D6C7B8"/>
  </g>

  <text x="188" y="220" fill="#5E4B41" font-size="14" font-family="Inter, Arial, sans-serif" font-weight="700" letter-spacing="0.18em">MAIL CONTROL</text>
  <text x="188" y="258" fill="#3B2E28" font-size="40" font-family="Inter, Arial, sans-serif" font-weight="700">Needs reply now</text>
  <text x="470" y="258" fill="#8B7A6E" font-size="19" font-family="Inter, Arial, sans-serif">4 active conversations  1 critical  1 high  2 follow-up today</text>

  <rect x="188" y="284" width="250" height="42" rx="21" fill="url(#glassCard)" stroke="#D6C7B8"/>
  <rect x="452" y="284" width="114" height="42" rx="21" fill="url(#softGloss)"/>
  <rect x="578" y="284" width="114" height="42" rx="21" fill="url(#glassCard)" stroke="#D6C7B8"/>
  <text x="222" y="311" fill="#A08E80" font-size="18" font-family="Inter, Arial, sans-serif">Search customer or thread</text>
  <text x="483" y="311" fill="#FBF7F3" font-size="18" font-family="Inter, Arial, sans-serif" font-weight="700">Unread</text>
  <text x="623" y="311" fill="#6D5A4E" font-size="18" font-family="Inter, Arial, sans-serif" font-weight="700">All mail</text>

  <rect x="188" y="332" width="106" height="22" rx="11" fill="#FFFFFF" fill-opacity="0.34"/>
  <rect x="306" y="332" width="126" height="22" rx="11" fill="#FFFFFF" fill-opacity="0.26"/>
  <rect x="444" y="332" width="152" height="22" rx="11" fill="#FFFFFF" fill-opacity="0.22"/>

  <text x="188" y="420" fill="#3B2E28" font-size="36" font-family="Inter, Arial, sans-serif" font-weight="700">Inbox stream</text>
  <text x="444" y="420" fill="#8B7A6E" font-size="18" font-family="Inter, Arial, sans-serif">Customer, subject, preview, timing, urgency</text>

  <g>
    <rect x="184" y="448" width="572" height="98" rx="24" fill="url(#glassCard)" stroke="#D6C7B8"/>
    <circle cx="214" cy="480" r="14" fill="url(#alertRed)"/>
    <rect x="203" y="470" width="22" height="8" rx="4" fill="url(#highlight)" opacity="0.45"/>
    <text x="244" y="476" fill="#3B2E28" font-size="28" font-family="Inter, Arial, sans-serif" font-weight="700">Customer 11</text>
    <text x="628" y="476" fill="#7C6A5E" font-size="17" font-family="Inter, Arial, sans-serif">19 min</text>
    <text x="244" y="506" fill="#7C6A5E" font-size="19" font-family="Inter, Arial, sans-serif">support@customer.se  contact  another thread reopened</text>
    <text x="244" y="534" fill="#6D5A4E" font-size="18" font-family="Inter, Arial, sans-serif">Customer replied elsewhere after colleague contact. High chance of split communication.</text>
  </g>

  <g filter="url(#soft)">
    <rect x="180" y="556" width="580" height="118" rx="26" fill="url(#glassCard)" stroke="#84AEF6" stroke-width="2"/>
  </g>
  <circle cx="214" cy="592" r="14" fill="url(#warnAmber)"/>
  <rect x="203" y="582" width="22" height="8" rx="4" fill="url(#highlight)" opacity="0.45"/>
  <text x="244" y="588" fill="#3B2E28" font-size="30" font-family="Inter, Arial, sans-serif" font-weight="700">Customer 3</text>
  <text x="612" y="588" fill="#7C6A5E" font-size="17" font-family="Inter, Arial, sans-serif">Today 14:27</text>
  <text x="244" y="620" fill="#7C6A5E" font-size="19" font-family="Inter, Arial, sans-serif">egzona  follow-up after consultation  medium urgency</text>
  <text x="244" y="650" fill="#6D5A4E" font-size="18" font-family="Inter, Arial, sans-serif">Needs a warm reply today. Another touchpoint exists, but this thread should become the main one.</text>

  <g>
    <rect x="184" y="684" width="572" height="98" rx="24" fill="url(#glassCard)" stroke="#D6C7B8"/>
    <circle cx="214" cy="716" r="14" fill="url(#safeGreen)"/>
    <rect x="203" y="706" width="22" height="8" rx="4" fill="url(#highlight)" opacity="0.45"/>
    <text x="244" y="712" fill="#3B2E28" font-size="28" font-family="Inter, Arial, sans-serif" font-weight="700">Customer 8</text>
    <text x="620" y="712" fill="#7C6A5E" font-size="17" font-family="Inter, Arial, sans-serif">Tomorrow</text>
    <text x="244" y="742" fill="#7C6A5E" font-size="19" font-family="Inter, Arial, sans-serif">shared inbox  pricing hesitation  follow-up due</text>
    <text x="244" y="770" fill="#6D5A4E" font-size="18" font-family="Inter, Arial, sans-serif">No missed answer yet. Just surface the right next step without noise.</text>
  </g>

  <text x="836" y="220" fill="#5E4B41" font-size="14" font-family="Inter, Arial, sans-serif" font-weight="700" letter-spacing="0.18em">ACTIVE CONVERSATION</text>
  <text x="836" y="258" fill="#3B2E28" font-size="40" font-family="Inter, Arial, sans-serif" font-weight="700">Customer 3</text>
  <text x="1076" y="258" fill="#8B7A6E" font-size="19" font-family="Inter, Arial, sans-serif">Follow-up  Neutral  Waiting today</text>

  <rect x="836" y="286" width="648" height="84" rx="24" fill="url(#glassCard)" stroke="#D6C7B8"/>
  <circle cx="864" cy="314" r="9" fill="url(#alertRed)"/>
  <text x="888" y="318" fill="#5E4B41" font-size="16" font-family="Inter, Arial, sans-serif" font-weight="700">Today, 10:30 - 11:00</text>
  <text x="888" y="352" fill="#3B2E28" font-size="28" font-family="Inter, Arial, sans-serif" font-weight="700">I still want to continue, but I am unsure about timing.</text>

  <rect x="836" y="384" width="186" height="42" rx="21" fill="url(#softGloss)"/>
  <rect x="1036" y="384" width="124" height="42" rx="21" fill="url(#glassCard)" stroke="#D6C7B8"/>
  <rect x="1174" y="384" width="172" height="42" rx="21" fill="url(#glassCard)" stroke="#D6C7B8"/>
  <text x="880" y="411" fill="#FBF7F3" font-size="19" font-family="Inter, Arial, sans-serif" font-weight="700">Conversation</text>
  <text x="1076" y="411" fill="#6D5A4E" font-size="19" font-family="Inter, Arial, sans-serif" font-weight="700">History</text>
  <text x="1214" y="411" fill="#6D5A4E" font-size="19" font-family="Inter, Arial, sans-serif" font-weight="700">Shared touchpoints</text>

  <rect x="836" y="440" width="648" height="58" rx="20" fill="url(#glassCard)" stroke="#D6C7B8"/>
  <text x="864" y="476" fill="#6D5A4E" font-size="20" font-family="Inter, Arial, sans-serif">Recommended next step: send a calm personal reply in this thread today.</text>

  <rect x="836" y="516" width="648" height="250" rx="28" fill="#FFFFFF" fill-opacity="0.62" stroke="#D6C7B8"/>
  <text x="864" y="548" fill="#5E4B41" font-size="13" font-family="Inter, Arial, sans-serif" font-weight="700" letter-spacing="0.16em">COMPOSE</text>
  <rect x="864" y="566" width="130" height="40" rx="20" fill="url(#glassCard)" stroke="#D6C7B8"/>
  <rect x="1006" y="566" width="130" height="40" rx="20" fill="url(#glassCard)" stroke="#D6C7B8"/>
  <rect x="1148" y="566" width="176" height="40" rx="20" fill="url(#softGloss)"/>
  <text x="913" y="592" fill="#6D5A4E" font-size="18" font-family="Inter, Arial, sans-serif" font-weight="700">Short</text>
  <text x="1054" y="592" fill="#6D5A4E" font-size="18" font-family="Inter, Arial, sans-serif" font-weight="700">Warm</text>
  <text x="1195" y="592" fill="#FBF7F3" font-size="18" font-family="Inter, Arial, sans-serif" font-weight="700">Professional</text>
  <text x="864" y="638" fill="#3B2E28" font-size="19" font-family="Inter, Arial, sans-serif">Hi,</text>
  <text x="864" y="674" fill="#3B2E28" font-size="19" font-family="Inter, Arial, sans-serif">Thank you for your email. I want to help you move forward clearly and keep everything gathered here.</text>
  <text x="864" y="710" fill="#3B2E28" font-size="19" font-family="Inter, Arial, sans-serif">If you continue in this thread, I will respond with the next best step and make sure nothing gets lost.</text>

  <rect x="836" y="784" width="648" height="56" rx="22" fill="url(#glassCard)" stroke="#D6C7B8" stroke-dasharray="6 6"/>
  <text x="864" y="820" fill="#6D5A4E" font-size="21" font-family="Inter, Arial, sans-serif" font-weight="700">More actions</text>

  <rect x="836" y="854" width="648" height="52" rx="22" fill="url(#glassCard)" stroke="#D6C7B8"/>
  <text x="864" y="887" fill="#3B2E28" font-size="21" font-family="Inter, Arial, sans-serif" font-weight="700">Recommended action: answer personally today to prevent thread loss</text>

  <g filter="url(#soft)">
    <rect x="836" y="922" width="120" height="40" rx="18" fill="url(#softGloss)"/>
    <rect x="968" y="922" width="146" height="40" rx="18" fill="url(#glassCard)" stroke="#D6C7B8"/>
    <rect x="1128" y="922" width="146" height="40" rx="18" fill="url(#glassCard)" stroke="#D6C7B8"/>
  </g>
  <text x="882" y="948" fill="#FBF7F3" font-size="18" font-family="Inter, Arial, sans-serif" font-weight="700">Send</text>
  <text x="1012" y="948" fill="#6D5A4E" font-size="18" font-family="Inter, Arial, sans-serif" font-weight="700">Send later</text>
  <text x="1172" y="948" fill="#6D5A4E" font-size="18" font-family="Inter, Arial, sans-serif" font-weight="700">Pause</text>

  <text x="68" y="988" fill="#7C6A5E" font-size="18" font-family="Inter, Arial, sans-serif">Soft glass direction: same CCO functions, lighter palette, closer cards, more transparency, less heavy panel styling.</text>
</svg>
