<svg xmlns="http://www.w3.org/2000/svg" width="57.116" height="43.064" viewBox="0 0 57.116 43.064">
  <g id="Group_17" data-name="Group 17" transform="translate(-0.006 0.008)">
    <path
      id="Path_28"
      data-name="Path 28"
      d="M303.853,121.1a8.974,8.974,0,0,0-7.171-14.025l-.009,1.043a20.177,20.177,0,0,1-8.023,13.123l-.364.266-.408-.192c-1.424-.671-2.711-1.376-3.746-1.943-2.344-1.284-4.649-2.721-6.878-4.111-1.676-1.045-3.4-2.117-5.153-3.139l-.378-.22V85.634l.59-.136a20.25,20.25,0,0,1,4.54-.513c5.391,0,9.677,1.111,14.382,6.641l.3.393-.258-2.955a21.52,21.52,0,0,0-35.949,15.98c0,.407.012.825.036,1.241l.034.608-.587.166a8.981,8.981,0,1,0,8.374,15.4l.459-.4.493.361a21.54,21.54,0,0,0,23.984.971l.332-.2.36.152a19.077,19.077,0,0,0,7.283,1.732h0a9.482,9.482,0,0,0,5.021-1.327,8.883,8.883,0,0,0,2.736-2.648Zm-42.03.573a7.512,7.512,0,1,1-7.1-13.043l.835-.3.17.871a21.482,21.482,0,0,0,5.905,11.066c.086.087.174.173.262.259l.632.615Zm8.43,2.348-1.052-.436a20.051,20.051,0,0,1-12-14.515l-.194-.948.968.035c4.172.151,8.822,2.7,11.6,4.221h0l.68.375Zm0-12.953-1.119-.6c-3.51-1.871-7.626-3.784-11.536-3.789h-.727l-.059-.726c-.013-.306-.021-.611-.021-.913A20.1,20.1,0,0,1,269.2,86.489l1.051-.432Zm15.234,12.064a19.993,19.993,0,0,1-13.178,1.45l-.589-.137V113.59l1.153.694c1.217.733,2.412,1.478,3.574,2.2,2.263,1.411,4.587,2.861,6.976,4.169.583.32,1.3.711,2.084,1.113l1.358.7Zm11.2.446-.776.017a16.065,16.065,0,0,1-4.761-.941l-1.26-.428,1.18-1.018a21.677,21.677,0,0,0,6.845-11.692l.179-.845.817.284a7.468,7.468,0,0,1,1.592.78l.69.446-.04.053a7.427,7.427,0,0,1,2.782,5.59,7.647,7.647,0,0,1-1.5,4.743,7.462,7.462,0,0,1-5.748,2.991Z"
      transform="translate(-248.29 -83.518)"
      fill="#4e6f68"
    />
    <rect
      id="Rectangle_17"
      data-name="Rectangle 17"
      width="1.467"
      height="41.526"
      transform="translate(27.822 0.761)"
      fill="#4e6f68"
    />
  </g>
</svg>
