<svg xmlns="http://www.w3.org/2000/svg" width="275.068" height="43.049" viewBox="0 0 275.068 43.049">
  <g id="Group_22" data-name="Group 22" transform="translate(-62.993 -171.971)">
    <g id="Group_17" data-name="Group 17" transform="translate(62.993 171.971)">
      <path
        id="Path_28"
        data-name="Path 28"
        d="M303.853,121.1a8.974,8.974,0,0,0-7.171-14.025l-.009,1.043a20.177,20.177,0,0,1-8.023,13.123l-.364.266-.408-.192c-1.424-.671-2.711-1.376-3.746-1.943-2.344-1.284-4.649-2.721-6.878-4.111-1.676-1.045-3.4-2.117-5.153-3.139l-.378-.22V85.634l.59-.136a20.25,20.25,0,0,1,4.54-.513c5.391,0,9.677,1.111,14.382,6.641l.3.393-.258-2.955a21.52,21.52,0,0,0-35.949,15.98c0,.407.012.825.036,1.241l.034.608-.587.166a8.981,8.981,0,1,0,8.374,15.4l.459-.4.493.361a21.54,21.54,0,0,0,23.984.971l.332-.2.36.152a19.077,19.077,0,0,0,7.283,1.732h0a9.482,9.482,0,0,0,5.021-1.327A8.883,8.883,0,0,0,303.853,121.1Zm-42.03.573a7.546,7.546,0,0,1-4.554,1.538,7.512,7.512,0,0,1-5.312-12.823,7.554,7.554,0,0,1,2.762-1.758l.835-.3.17.871a21.482,21.482,0,0,0,5.905,11.066c.086.087.174.173.262.259l.632.615Zm8.43,2.348-1.052-.436a20.051,20.051,0,0,1-12-14.515l-.194-.948.968.035c4.172.151,8.822,2.7,11.6,4.221h0l.68.375Zm0-12.953-1.119-.6c-3.51-1.871-7.626-3.784-11.536-3.789h-.727l-.059-.726c-.013-.306-.021-.611-.021-.913A20.1,20.1,0,0,1,269.2,86.489l1.051-.432Zm15.234,12.064a19.993,19.993,0,0,1-13.178,1.45l-.589-.137V113.59l1.153.694c1.217.733,2.412,1.478,3.574,2.2,2.263,1.411,4.587,2.861,6.976,4.169.583.32,1.3.711,2.084,1.113l1.358.7Zm11.195.446-.776.017a16.064,16.064,0,0,1-4.761-.941l-1.26-.428,1.18-1.018a21.677,21.677,0,0,0,6.845-11.692l.179-.845.817.284a7.467,7.467,0,0,1,1.592.78l.69.446-.04.053a7.427,7.427,0,0,1,2.782,5.59,7.647,7.647,0,0,1-1.5,4.743,7.462,7.462,0,0,1-5.748,2.991Z"
        transform="translate(-248.29 -83.518)"
        fill="#4e6f68"
      />
      <rect
        id="Rectangle_17"
        data-name="Rectangle 17"
        width="1.467"
        height="41.526"
        transform="translate(27.822 0.761)"
        fill="#4e6f68"
      />
    </g>
    <g id="Group_18" data-name="Group 18" transform="translate(145.117 181.886)">
      <path id="Path_29" data-name="Path 29" d="M171.919,191.852c0-7.2,4.439-11.734,10.275-11.734a9.14,9.14,0,0,1,8.5,5.4l-3.321,1.367h-.217c-.341-2.732-1.738-6.023-5.091-6.023-3.57,0-6.487,3.6-6.487,10.337,0,7.543,3.663,11.081,7.17,11.081,3.352,0,4.656-3.259,4.935-6.022l3.632.993a9.276,9.276,0,0,1-9,5.8C176.669,203.057,171.919,199.239,171.919,191.852Z" transform="translate(-171.919 -179.839)" fill="#4e6f68"/>
      <path id="Path_30" data-name="Path 30" d="M211,195.051V180.586h3.383V194.9c0,4.687,2.235,7.17,5.618,7.17,2.919,0,5.743-1.893,5.743-6.239V180.586h.9V195.8c0,4.656-2.98,7.356-7.574,7.356C215.4,203.153,211,201.446,211,195.051Z" transform="translate(-179.895 -179.934)" fill="#4e6f68"/>
      <path id="Path_31" data-name="Path 31" d="M245.862,180.586h6.892c5.184,0,8.1,2.235,8.1,5.339,0,2.825-2.452,5.091-5.774,5.681l6.147,11.174h-3.6l-5.9-10.926-2.483.062V202.78h-3.383Zm6.736,10.523c2.608,0,4.843-1.428,4.843-5,0-3.414-2.112-4.749-5.06-4.749h-3.135v9.747Z" transform="translate(-187.011 -179.934)" fill="#4e6f68"/>
      <path id="Path_32" data-name="Path 32" d="M281.432,196.033l4.873-12.789-.931-1.8a13.544,13.544,0,0,0,3.011-1.676l8.753,22.846h-3.57l-2.856-7.636H282.86l-.5,1.366a60,60,0,0,0-1.8,6.27h-1.707C279.694,200.409,280.594,198.205,281.432,196.033Zm8.846-2.266-3.507-9.405-3.445,9.405Z" transform="translate(-193.746 -179.767)" fill="#4e6f68"/>
      <path id="Path_33" data-name="Path 33" d="M319.722,181.362H312.4v-.776h17.941v.776h-7.232V202.78h-3.383Z" transform="translate(-200.591 -179.934)" fill="#4e6f68"/>
      <path id="Path_34" data-name="Path 34" d="M349.523,180.586h3.383V202.78h-3.383Z" transform="translate(-208.169 -179.934)" fill="#4e6f68"/>
      <path id="Path_35" data-name="Path 35" d="M369.063,180.586h3.383V202.78h-3.383Z" transform="translate(-212.157 -179.934)" fill="#4e6f68"/>
      <path id="Path_36" data-name="Path 36" d="M387.587,191.572c0-6.83,4.409-11.455,10.616-11.455,6.239,0,10.678,4.656,10.678,11.455s-4.439,11.485-10.678,11.485C392,203.057,387.587,198.4,387.587,191.572ZM405.312,193c0-5.278-2.452-12.075-7.636-12.075-3.942,0-6.55,3.849-6.55,9.313,0,5.339,2.514,12.012,7.637,12.012C402.58,202.25,405.312,198.556,405.312,193Z" transform="translate(-215.938 -179.839)" fill="#4e6f68"/>
    </g>
  </g>
</svg>
